<?xml version="1.0" encoding="utf-8"?>
<!DOCTYPE svg PUBLIC "-//W3C//DTD SVG 1.0//EN" "http://www.w3.org/TR/2001/REC-SVG-20010904/DTD/svg10.dtd">
<svg version="1.0" xmlns="http://www.w3.org/2000/svg" width="1024px" height="1024px" viewBox="0 0 1024 1024" preserveAspectRatio="xMidYMid meet">
 <g fill="#000000">
  <path d="M0 769.8 c0 -252.8 0.4 -284.2 3.5 -312.8 15.3 -139.3 85.2 -263.6 197 -350.5 64 -49.7 144.4 -85 224.8 -98.5 165.3 -27.8 330.3 24.7 448.2 142.5 75.1 75.2 125.1 171.6 142.5 274.8 27.8 165.3 -24.7 330.3 -142.5 448.2 -75.4 75.3 -171.5 125.1 -275.3 142.6 -17 2.9 -27.5 3.6 -14.2 1.1 30.4 -6 69.5 -21.1 97.5 -37.9 12.2 -7.3 24.8 -15.3 25.5 -16.2 0.3 -0.4 2.1 -1.8 4 -3.1 21.8 -15 58 -51.2 73 -73 1.3 -1.9 2.7 -3.7 3.1 -4 0.9 -0.7 8.9 -13.3 16.2 -25.5 29 -48.4 45.7 -110.4 45.7 -169.5 0 -51.8 -11.7 -101.7 -35.1 -150 -5.7 -11.7 -24.5 -43.2 -26.8 -45 -0.4 -0.3 -1.8 -2.1 -3.1 -4 -15 -21.8 -51.2 -58 -73 -73 -1.9 -1.3 -3.7 -2.7 -4 -3.1 -0.7 -0.9 -13.3 -8.9 -25.5 -16.2 -48.4 -29 -110.4 -45.7 -169.5 -45.7 -51.8 0 -101.7 11.7 -150 35.1 -11.7 5.7 -43.2 24.5 -45 26.8 -0.3 0.4 -2.1 1.8 -4 3.1 -21.8 15 -58 51.2 -73 73 -1.3 1.9 -2.7 3.7 -3.1 4 -2.3 1.8 -21.1 33.3 -26.8 45 -14.8 30.5 -23.8 57.6 -29.2 88 -6 33.2 -5.9 29.9 -5.9 222.3 l0 175.7 -87.5 0 -87.5 0 0 -254.2z"/>
  <path d="M397 741.3 c0 -35.5 0.5 -64.8 1 -68.8 1.8 -12.2 4.9 -22.7 10 -33.2 6.4 -13.3 11.5 -20.8 21.3 -31 22.4 -23.3 50.5 -35.3 82.7 -35.3 32.2 0 60.3 12 82.7 35.3 22.6 23.5 33.7 53.4 31.9 85.7 -2.3 41.8 -26.6 78.4 -64.1 96.6 -13.3 6.5 -24.6 9.8 -38.3 11.3 -6.3 0.7 -32.7 1.1 -68.7 1.1 l-58.5 0 0 -61.7z"/>
 </g>
</svg>